<?xml version="1.0" encoding="UTF-8"?>
<svg id="Camada_2" data-name="Camada 2" xmlns="http://www.w3.org/2000/svg" viewBox="0 0 786.86 364.09">
  <defs>
    <style>
      .cls-1 {
        fill: #4492e1;
      }
    </style>
  </defs>
  <g id="Camada_1-2" data-name="Camada 1">
    <g>
      <g>
        <polygon class="cls-1" points="249.48 97.86 249.14 97.78 249.01 97.45 249.01 97.45 249.06 97.3 250.82 94.29 252.26 91.16 252.26 91.16 252.26 91.16 253.43 87.81 254.28 84.32 254.81 80.69 255.01 76.93 255.02 22.95 255.4 16.47 255.94 13.83 256.7 11.59 258.81 7.78 261.57 4.73 261.57 4.73 261.57 4.73 261.57 4.73 264.57 2.66 268.08 1.18 272.11 .29 276.64 0 467.92 .01 470.84 .2 473.59 .77 476.15 1.69 478.52 2.95 481.27 5.07 483.6 7.7 485.48 10.79 486.88 14.29 487.57 18.41 487.79 24.77 487.83 71.97 487.38 78.12 486.83 80.86 486.02 83.42 484.98 85.77 483.7 87.93 482.23 89.76 480.53 91.37 477.9 93.14 474.83 94.46 471.42 95.28 467.59 95.6 426.77 95.65 423.54 95.15 416.66 92.06 410 88.98 396.02 83.49 388.33 80.25 388.25 80.21 384.24 78.22 381.52 76.42 379.6 74.49 378.4 72.36 377.92 70.4 377.92 68.12 378.64 65.52 380.05 63.62 381.41 62.71 383 62.17 384.78 62.01 386.72 62.23 389.34 63.13 391.41 64.6 391.41 64.6 391.41 64.6 392.63 66.06 393.52 67.86 394.12 69.97 394.41 72.4 394.66 72.96 395.22 73.18 442.01 73.18 442.02 73.18 442.4 72.76 441.53 65.53 439.81 58.96 437.22 52.87 433.85 47.46 430.84 43.84 427.43 40.59 423.55 37.64 419.3 35.06 414.66 32.84 409.69 31 404.29 29.51 398.61 28.41 393.72 27.79 388.7 27.45 383.71 27.38 378.69 27.61 373.89 28.1 369.14 28.86 364.63 29.88 360.25 31.19 356.26 32.69 352.44 34.45 348.94 36.43 345.65 38.67 342.75 41.04 340.08 43.67 337.77 46.46 335.7 49.5 333.67 53.39 332.06 57.65 330.95 62.1 330.3 66.91 330.14 73.87 330.86 80.25 332.44 86.01 334.9 91.24 337.33 94.82 337.41 94.98 337.34 95.46 336.91 95.68 274.75 95.64 273.93 95.63 273.93 95.63 273.93 95.63 271.07 95.31 268.23 94.61 265.4 93.53 262.59 92.06 262.13 92.06 255.88 95.49 252.71 96.82 249.48 97.86 249.48 97.86"/>
        <polygon class="cls-1" points="540.25 209.14 540.27 209.54 539.97 209.77 539.8 209.76 535.44 208.35 531.33 206.46 531.33 206.46 527.65 204.2 527.05 203.97 526.42 204.07 523.84 205.47 521.93 206.38 519.85 207.03 517.62 207.41 515.23 207.54 319.69 207.55 316.72 207.24 313.84 206.34 311 204.85 308.43 202.88 306.11 200.45 304.23 197.7 302.89 194.83 302.09 191.82 301.77 187.78 301.66 180.63 301.74 132.09 302.19 127.63 303.5 123.57 303.5 123.57 304.97 120.86 306.88 118.33 309.23 116.05 311.73 114.37 314.26 113.26 317.01 112.54 320.21 112.14 324.05 112.02 353.67 112.09 355.37 112.27 357 112.81 367.22 117.23 376.07 120.57 385.24 124.02 392.78 127.44 395.19 128.84 397.05 130.36 398.43 132.07 399.19 133.86 399.38 134.82 399.47 136.63 399.28 138.2 398.85 139.56 398.17 140.71 397.05 141.82 395.61 142.64 393.88 143.21 391.89 143.51 389.64 143.57 387.66 143.3 385.82 142.72 384.25 141.82 382.52 140.14 381.21 137.99 380.28 135.22 379.73 132.05 379.48 131.53 378.94 131.32 333.1 131.32 332.53 131.56 332.31 132.14 332.31 132.17 333.26 139 334.98 145.26 337.47 151.14 340.67 156.42 343.62 160.12 346.95 163.47 350.72 166.56 354.86 169.29 359.35 171.65 364.15 173.66 369.36 175.32 374.85 176.62 384.42 177.98 393.96 178.32 403.08 177.63 407.42 176.92 411.68 175.96 415.65 174.75 419.51 173.3 423.09 171.64 426.51 169.71 429.61 167.62 432.52 165.27 435.15 162.75 437.57 159.99 441.23 154.58 444.03 148.64 445.47 144.12 446.39 139.4 446.8 134.57 446.66 129.72 445.99 125.14 444.81 120.69 443.13 116.59 440.94 112.75 440.87 112.61 440.95 112.19 441.34 112.01 510.97 112.03 518.39 112.44 521.08 112.96 523.09 113.68 526.34 115.65 529.09 118.1 529.09 118.1 531.19 120.78 532.86 123.86 533.59 126.14 534.11 129.25 534.47 137.89 534.42 188.55 534.59 192.22 535.07 195.76 535.85 199.19 536.95 202.51 536.95 202.51 536.95 202.51 538.42 205.89 540.25 209.14 540.25 209.14"/>
      </g>
      <g>
        <polygon class="cls-1" points="481.45 336.19 481.57 335.82 481.91 335.65 481.91 335.65 481.94 335.65 508.44 335.65 509.16 335.88 509.63 336.48 511.12 340.58 512.02 341.75 514.22 342.9 516.39 343.21 516.39 343.21 518.64 342.63 520.83 341.12 521.24 340.55 521.36 339.87 521.11 338.19 520.55 336.76 519.53 335.33 518.19 334.19 516.4 333.17 514.12 332.23 510.79 331.05 499.92 326.96 496.07 325.14 492.76 323.25 489.86 321.17 487.49 319.01 485.51 316.66 483.89 314 482.59 310.7 481.82 306.96 481.65 302.97 482.07 298.51 483.19 294.05 485.15 289.96 486.83 287.58 488.79 285.45 491.11 283.51 493.66 281.85 496.6 280.35 499.73 279.14 503.15 278.18 506.71 277.51 510.58 277.09 514.49 276.99 518.49 277.18 522.41 277.69 526.21 278.47 529.77 279.51 533.09 280.82 536.06 282.35 538.73 284.17 541.07 286.26 543.95 289.83 546.11 293.86 547.59 298.37 548.33 303.18 548.04 304.07 547.2 304.48 547.14 304.48 520.8 304.48 520.02 304.19 519.64 303.45 518.99 301.27 517.66 299.27 515.94 297.96 514.18 297.58 512.43 298.11 511.29 299.01 510.58 300.08 510.25 301.77 510.62 303.51 511.6 305.1 513.09 306.37 518.04 308.94 525.51 312.02 534 315.6 539.6 318.72 541.96 320.47 543.89 322.27 545.54 324.24 546.93 326.42 548.08 328.95 548.87 331.78 549.3 334.79 549.35 338.12 548.99 341.72 548.25 345.02 547.1 348.15 545.58 350.96 542.63 354.71 538.81 357.94 534.34 360.49 529.16 362.39 523.4 363.59 517.21 364.04 510.96 363.7 504.95 362.59 499.38 360.82 494.5 358.45 490.45 355.55 487.09 352.02 484.91 348.66 483.23 344.87 482.1 340.76 481.45 336.19 481.45 336.19"/>
        <path class="cls-1" d="M643.15,320.42l-.21,4.28-.63,4.24-1.03,4.16-1.45,4.03-1.82,3.87-2.21,3.69-2.55,3.43-2.88,3.18-3.18,2.88-3.43,2.55-3.69,2.21-3.87,1.82-4.03,1.45-4.16,1.03-4.24.63-4.28.21-4.28-.21-4.24-.63-4.16-1.03-4.03-1.45-3.87-1.82-3.69-2.21-3.43-2.55-3.18-2.88-2.88-3.18-2.55-3.43-2.21-3.69-1.82-3.87-1.45-4.03-1.03-4.16-.63-4.24-.21-4.28.21-4.28.63-4.24,1.03-4.16,1.45-4.03,1.82-3.87,2.21-3.69,2.55-3.43,2.88-3.18,3.18-2.88,3.43-2.55,3.69-2.21,3.87-1.82,4.03-1.45,4.16-1.03,4.24-.63,4.28-.21,4.28.21,4.24.63,4.16,1.03,4.03,1.45,3.87,1.82,3.69,2.21,3.43,2.55,3.18,2.88,2.88,3.18,2.55,3.43,2.21,3.69,1.82,3.87,1.45,4.03,1.03,4.16.63,4.24.21,4.28M615.52,316.63l-.28-2.87-.85-2.76-1.36-2.54-1.82-2.23-2.23-1.82-2.54-1.36-2.76-.85-2.87-.28h-2.62l-2.87.28-2.76.85-2.54,1.36-2.23,1.82-1.82,2.23-1.36,2.54-.85,2.76-.28,2.87v7.37l.28,2.87.85,2.76,1.36,2.54,1.82,2.23,2.23,1.82,2.54,1.36,2.76.85,2.87.28h2.62l2.87-.28,2.76-.85,2.54-1.36,2.23-1.82,1.82-2.23,1.36-2.54.85-2.76.28-2.87v-7.37h0Z"/>
        <path class="cls-1" d="M45.83,278.45l14.23.13,1,.32.65.85,29.87,82.13.04.13-.18.66-.62.29h-25.61l-.92-.29-.59-.77-3.75-10.32-.58-.75-.91-.28-12.62.04-12.63-.05-.91.28-.58.75-3.75,10.32-.59.77-.92.29H.81s-.63-.3-.63-.3l-.17-.66h0l.04-.13,29.92-82.11.63-.83,1-.33,14.23-.12M38.68,329.5l-.03.21.2.45.45.18,12.97-.03.54-.29.08-.55-6.53-20.66-.18-.29-.61-.15-.45.44-6.45,20.69h0Z"/>
        <polygon class="cls-1" points="128.32 363.12 116.14 362.97 115.31 362.6 114.97 361.77 115.03 300.47 115.03 300.47 114.86 300.04 114.41 299.87 93.61 299.84 93.05 299.65 92.69 298.93 92.71 279.48 92.98 278.82 93.65 278.55 128.35 278.62 163.05 278.57 163.72 278.85 164 279.52 164 298.95 163.74 299.6 163.09 299.87 142.27 299.88 141.84 300.05 141.65 300.49 141.66 361.78 141.32 362.61 140.49 362.97 128.32 363.12 128.32 363.12"/>
        <polygon class="cls-1" points="198.4 330.3 197.69 330.61 197.4 331.32 197.45 340.43 197.78 341.24 198.6 341.6 226.3 341.75 226.84 341.93 227.21 342.36 227.21 342.36 227.29 342.75 227.22 362.28 227.04 362.73 226.6 362.9 171.84 362.97 171.84 362.97 171.08 362.65 170.77 361.89 170.67 279.51 170.98 278.78 171.69 278.49 226.46 278.58 226.46 278.58 227.04 278.82 227.28 279.42 227.21 298.97 226.99 299.52 226.43 299.76 198.78 299.87 197.69 300.32 197.24 301.41 197.26 308.1 197.4 308.77 197.78 309.34 198.35 309.72 199.02 309.85 223.06 309.91 223.58 310.13 223.79 310.63 223.7 329.44 223.64 329.72 222.98 330.16 198.4 330.3 198.4 330.3"/>
        <polygon class="cls-1" points="286.95 314.37 290.7 319.97 291.02 320.12 291.31 319.92 291.35 319.76 291.35 279.17 291.53 278.7 291.99 278.52 316.85 278.52 317.55 278.81 317.84 279.5 317.84 279.5 317.84 362.32 317.63 362.81 317.14 363.02 292.49 363.02 291.5 362.77 290.75 362.1 278.78 344.25 267.82 327.14 264.08 321.54 263.75 321.4 263.46 321.6 263.42 321.75 263.42 362.35 263.23 362.81 262.77 363 237.91 363 237.21 362.71 236.92 362.02 236.92 362.02 236.92 362.02 236.92 279.19 237.13 278.7 237.62 278.49 262.27 278.49 263.26 278.74 264.03 279.42 275.98 297.26 286.95 314.37 286.95 314.37"/>
        <path class="cls-1" d="M329.5,279.81l.34-.83.85-.36,36.62-.13,4.02.18,3.99.55,3.91.94,3.79,1.29,3.65,1.66,3.46,1.99,3.25,2.31,2.99,2.62,2.72,2.88,2.4,3.13,2.09,3.33,1.73,3.53,1.37,3.67.99,3.78.59,3.87.21,3.9h0l.03,4.81h0l-.18,3.9-.58,3.86-.96,3.79-1.35,3.69-1.7,3.53-2.06,3.36-2.39,3.14-2.69,2.91-2.97,2.63-3.22,2.34-3.45,2.02-3.63,1.68-3.79,1.33-3.9.95-3.98.59-4.03.2-36.62.13-.85-.34-.34-.85-.29-81.98M356.13,302.23l.05,36.62.05.17.28.16h7.62s3.43-.36,3.43-.36l3.29-.99,3.04-1.61,2.66-2.17,2.18-2.64,1.62-3.01.99-3.26.33-3.4h0v-2.51l-.34-3.38-1-3.26-1.64-3-2.18-2.64-2.67-2.15-3.04-1.6-3.3-.99-3.42-.32h-7.62s-.09.03-.09.03l-.24.32h0Z"/>
        <polygon class="cls-1" points="445.61 341.65 473.43 341.65 474.15 341.94 474.44 342.65 474.44 361.91 474.15 362.63 473.43 362.92 418.91 362.92 418.2 362.63 417.91 361.91 417.91 279.54 418.2 278.82 418.91 278.53 473.43 278.53 474.07 278.76 474.44 279.54 474.44 298.81 474.15 299.52 473.43 299.81 445.51 299.81 444.81 300.09 444.5 300.78 444.5 300.82 444.5 308.85 444.79 309.56 445.51 309.85 469.93 309.85 470.64 310.14 470.94 310.86 470.94 329.22 470.64 329.93 469.93 330.22 445.61 330.22 444.9 330.51 444.61 331.23 444.61 340.65 444.9 341.36 445.61 341.65 445.61 341.65"/>
        <polygon class="cls-1" points="677.58 362.98 653.17 362.98 652.47 362.69 652.18 361.99 652.18 279.56 652.47 278.86 653.17 278.57 710.88 278.57 711.58 278.86 711.87 279.56 711.87 298.84 711.58 299.54 710.88 299.83 679.47 299.83 678.95 299.97 678.58 300.37 678.48 300.82 678.48 310.06 678.77 310.76 679.47 311.05 701.48 311.05 702.03 311.23 702.47 312.05 702.47 330.04 702.18 330.74 701.48 331.03 679.56 331.03 678.86 331.32 678.57 332.02 678.57 361.99 678.28 362.69 677.58 362.98 677.58 362.98"/>
        <polygon class="cls-1" points="751.28 278.6 785.93 278.56 786.59 278.84 786.86 279.5 786.86 298.9 786.6 299.55 785.95 299.81 765.17 299.81 764.74 299.98 764.55 300.42 764.55 300.42 764.55 361.61 764.21 362.44 763.39 362.81 751.22 362.94 739.07 362.79 738.25 362.43 737.91 361.6 737.99 300.41 737.99 300.41 737.8 299.97 737.37 299.8 716.59 299.77 715.94 299.5 715.68 298.86 715.7 279.46 715.98 278.78 716.64 278.52 751.28 278.6 751.28 278.6"/>
      </g>
    </g>
  </g>
</svg>